<svg xmlns="http://www.w3.org/2000/svg" viewBox="0 0 584 284" fill="none" role="img" aria-label="World Cup Anthem">
  <defs>
    <linearGradient id="wc-sky" x1="0" y1="0" x2="584" y2="284" gradientUnits="userSpaceOnUse">
      <stop stop-color="#05070d"/>
      <stop offset="0.45" stop-color="#0f1a2e"/>
      <stop offset="1" stop-color="#1a1408"/>
    </linearGradient>
    <radialGradient id="wc-glow" cx="0" cy="0" r="1" gradientUnits="userSpaceOnUse" gradientTransform="translate(292 180) rotate(90) scale(220 180)">
      <stop stop-color="#facc15" stop-opacity="0.45"/>
      <stop offset="0.55" stop-color="#7c5cff" stop-opacity="0.18"/>
      <stop offset="1" stop-color="#05070d" stop-opacity="0"/>
    </radialGradient>
    <linearGradient id="wc-beam" x1="0" y1="0" x2="0" y2="1">
      <stop stop-color="#fff" stop-opacity="0.35"/>
      <stop offset="1" stop-color="#fff" stop-opacity="0"/>
    </linearGradient>
    <linearGradient id="wc-wave" x1="0" y1="0" x2="1" y2="0">
      <stop stop-color="#23d5ab" stop-opacity="0"/>
      <stop offset="0.5" stop-color="#23d5ab" stop-opacity="0.85"/>
      <stop offset="1" stop-color="#facc15" stop-opacity="0"/>
    </linearGradient>
  </defs>
  <rect width="584" height="284" fill="url(#wc-sky)"/>
  <rect width="584" height="284" fill="url(#wc-glow)"/>
  <g opacity="0.55">
    <ellipse cx="120" cy="18" rx="90" ry="120" fill="url(#wc-beam)" transform="rotate(-18 120 18)"/>
    <ellipse cx="292" cy="8" rx="110" ry="140" fill="url(#wc-beam)"/>
    <ellipse cx="464" cy="20" rx="90" ry="120" fill="url(#wc-beam)" transform="rotate(18 464 20)"/>
  </g>
  <g stroke="#facc15" stroke-opacity="0.35" stroke-width="2">
    <path d="M40 118c48-28 96-28 144 0s96 28 144 0 96-28 144 0" fill="none"/>
    <path d="M24 138c56-22 112-22 168 0s112 22 168 0 112-22 168 0" stroke="#23d5ab" stroke-opacity="0.45" fill="none"/>
    <path d="M56 158c40-16 80-16 120 0s80 16 120 0 80-16 120 0" stroke="#7c5cff" stroke-opacity="0.35" fill="none"/>
  </g>
  <g transform="translate(248 72)">
    <path d="M44 88c0-24 20-44 44-44s44 20 44 44v8H44v-8z" fill="#facc15" opacity="0.9"/>
    <rect x="52" y="96" width="72" height="10" rx="5" fill="#f59e0b"/>
    <rect x="68" y="106" width="40" height="28" rx="4" fill="#fde047" opacity="0.85"/>
    <path d="M88 44c-8-10-20-16-32-16-18 0-32 14-32 32 0 8 2 14 6 20" stroke="#fff" stroke-opacity="0.5" stroke-width="3" fill="none"/>
  </g>
  <g opacity="0.9">
    <rect x="72" y="188" width="36" height="24" rx="3" fill="#c8102e"/>
    <rect x="72" y="188" width="12" height="24" fill="#fff"/>
    <rect x="84" y="188" width="12" height="8" fill="#fff"/>
    <rect x="476" y="184" width="36" height="24" rx="3" fill="#009639"/>
    <rect x="476" y="184" width="12" height="8" fill="#ffce00"/>
    <rect x="488" y="192" width="12" height="8" fill="#ffce00"/>
    <rect x="500" y="184" width="12" height="24" fill="#002776"/>
  </g>
  <path d="M0 210 Q146 188 292 198 T584 208 V284 H0 Z" fill="#05070d" opacity="0.55"/>
  <g fill="#23d5ab" opacity="0.35">
    <circle cx="88" cy="222" r="3"/><circle cx="104" cy="228" r="2"/><circle cx="120" cy="220" r="3"/>
    <circle cx="460" cy="224" r="3"/><circle cx="476" cy="218" r="2"/><circle cx="492" cy="226" r="3"/>
  </g>
  <path d="M0 228 Q73 214 146 224 T292 220 T438 226 T584 216 V284 H0 Z" fill="#0a0e16"/>
  <rect y="248" width="584" height="36" fill="url(#wc-wave)" opacity="0.25"/>
</svg>
