<svg xmlns="http://www.w3.org/2000/svg" viewBox="0 0 100 100">
  <defs>
    <linearGradient id="sky" x1="0" y1="0" x2="0" y2="1"><stop offset="0" stop-color="#FFB592"/><stop offset=".55" stop-color="#F0688E"/><stop offset="1" stop-color="#9A47D0"/></linearGradient>
    <linearGradient id="sea" x1="0" y1="0" x2="0" y2="1"><stop offset="0" stop-color="#7A3BC8"/><stop offset="1" stop-color="#3A1A78"/></linearGradient>
    <radialGradient id="sun" cx=".5" cy=".35" r=".65"><stop offset="0" stop-color="#FFF4DC"/><stop offset="1" stop-color="#FFC08A"/></radialGradient>
    <radialGradient id="halo" cx="50" cy="64" r="30" gradientUnits="userSpaceOnUse"><stop offset="0" stop-color="#FFE0B0" stop-opacity=".8"/><stop offset="1" stop-color="#FFE0B0" stop-opacity="0"/></radialGradient>
    <linearGradient id="wall" x1="0" y1="0" x2="1" y2="1"><stop offset="0" stop-color="#43195C"/><stop offset="1" stop-color="#170920"/></linearGradient>
    <clipPath id="arch"><path d="M24 100V44a26 26 0 0 1 52 0v56z"/></clipPath>
  </defs>
  <g clip-path="url(#arch)">
    <rect width="100" height="100" fill="url(#sky)"/>
    <circle cx="50" cy="64" r="30" fill="url(#halo)"/>
    <circle cx="50" cy="66" r="13" fill="url(#sun)"/>
    <rect y="72" width="100" height="28" fill="url(#sea)"/>
    <g fill="#FFD9B0"><rect x="40" y="75" width="20" height="1.2" rx=".6" opacity=".7"/><rect x="43" y="79" width="14" height="1" rx=".5" opacity=".45"/><rect x="46" y="83" width="8" height=".9" rx=".45" opacity=".3"/></g>
  </g>
  <path fill="url(#wall)" fill-rule="evenodd" d="M0 0h100v100H0z M24 100V44a26 26 0 0 1 52 0v56z"/>
  <path d="M20 100V44a30 30 0 0 1 60 0v56" fill="none" stroke="#FFC9A8" stroke-opacity=".28" stroke-width=".8"/>
  <path d="M24 100V44a26 26 0 0 1 52 0v56" fill="none" stroke="#FFD9B8" stroke-opacity=".45" stroke-width=".6"/>
</svg>
