<svg xmlns="http://www.w3.org/2000/svg" viewBox="0 0 584 284" fill="none" role="img" aria-label="Love Song Challenge">
  <defs>
    <linearGradient id="lv-bg" x1="0" y1="0" x2="584" y2="284" gradientUnits="userSpaceOnUse">
      <stop stop-color="#0f0a18"/>
      <stop offset="0.55" stop-color="#1f1238"/>
      <stop offset="1" stop-color="#120f22"/>
    </linearGradient>
    <radialGradient id="lv-glow" cx="0" cy="0" r="1" gradientUnits="userSpaceOnUse" gradientTransform="translate(292 130) rotate(90) scale(180 150)">
      <stop stop-color="#f472b6" stop-opacity="0.4"/>
      <stop offset="0.5" stop-color="#a78bfa" stop-opacity="0.35"/>
      <stop offset="1" stop-color="#0f0a18" stop-opacity="0"/>
    </radialGradient>
    <linearGradient id="lv-heart" x1="0" y1="0" x2="1" y2="1">
      <stop stop-color="#f9a8d4"/>
      <stop offset="1" stop-color="#c084fc"/>
    </linearGradient>
  </defs>
  <rect width="584" height="284" fill="url(#lv-bg)"/>
  <rect width="584" height="284" fill="url(#lv-glow)"/>
  <g opacity="0.45">
    <ellipse cx="292" cy="280" rx="240" ry="80" fill="#f472b6" opacity="0.12"/>
  </g>
  <path d="M292 88c-28-36-76-28-76 16 0 28 32 52 76 88 44-36 76-60 76-88 0-44-48-52-76-16z" fill="url(#lv-heart)" opacity="0.92"/>
  <path d="M292 88c-28-36-76-28-76 16 0 28 32 52 76 88 44-36 76-60 76-88 0-44-48-52-76-16z" stroke="#fff" stroke-opacity="0.25" stroke-width="2"/>
  <g stroke="#f472b6" stroke-opacity="0.5" stroke-width="2" fill="none">
    <path d="M80 120c32-20 64-20 96 0 32 20 64 20 96 0 32-20 64-20 96 0"/>
    <path d="M48 148c40-14 80-14 120 0s80 14 120 0 80-14 120 0" stroke="#a78bfa" stroke-opacity="0.45"/>
    <path d="M96 176c28-12 56-12 84 0s56 12 84 0 56-12 84 0" stroke="#23d5ab" stroke-opacity="0.35"/>
  </g>
  <g fill="#fff" opacity="0.35">
    <circle cx="120" cy="72" r="2"/><circle cx="464" cy="68" r="2"/><circle cx="180" cy="200" r="2"/>
    <circle cx="404" cy="196" r="2"/>
  </g>
  <path d="M0 220 Q146 208 292 214 T584 218 V284 H0 Z" fill="#0a0612" opacity="0.45"/>
</svg>
