<svg xmlns="http://www.w3.org/2000/svg" viewBox="0 0 584 284" fill="none" role="img" aria-label="Remix Battle">
  <defs>
    <linearGradient id="rb-bg" x1="0" y1="0" x2="584" y2="284" gradientUnits="userSpaceOnUse">
      <stop stop-color="#05070d"/>
      <stop offset="0.5" stop-color="#0a1f24"/>
      <stop offset="1" stop-color="#081018"/>
    </linearGradient>
    <radialGradient id="rb-clash" cx="0" cy="0" r="1" gradientUnits="userSpaceOnUse" gradientTransform="translate(292 142) rotate(90) scale(120 100)">
      <stop stop-color="#23d5ab" stop-opacity="0.55"/>
      <stop offset="0.5" stop-color="#7c5cff" stop-opacity="0.35"/>
      <stop offset="1" stop-color="#05070d" stop-opacity="0"/>
    </radialGradient>
    <linearGradient id="rb-left" x1="0" y1="0" x2="1" y2="0">
      <stop stop-color="#23d5ab"/>
      <stop offset="1" stop-color="#23d5ab" stop-opacity="0"/>
    </linearGradient>
    <linearGradient id="rb-right" x1="1" y1="0" x2="0" y2="0">
      <stop stop-color="#7c5cff"/>
      <stop offset="1" stop-color="#7c5cff" stop-opacity="0"/>
    </linearGradient>
  </defs>
  <rect width="584" height="284" fill="url(#rb-bg)"/>
  <rect width="584" height="284" fill="url(#rb-clash)"/>
  <rect x="0" y="0" width="292" height="284" fill="url(#rb-left)" opacity="0.12"/>
  <rect x="292" y="0" width="292" height="284" fill="url(#rb-right)" opacity="0.12"/>
  <path d="M292 24 L308 52 H276 Z" fill="#23d5ab" opacity="0.8"/>
  <path d="M292 260 L308 232 H276 Z" fill="#7c5cff" opacity="0.8"/>
  <text x="292" y="152" text-anchor="middle" fill="#fff" font-family="system-ui,sans-serif" font-size="42" font-weight="900" opacity="0.95">VS</text>
  <g stroke-width="3" fill="none">
    <path d="M48 96 V188 M68 88 V196 M88 100 V184 M108 92 V192 M128 104 V180" stroke="#23d5ab" stroke-opacity="0.75"/>
    <path d="M456 96 V188 M476 88 V196 M496 100 V184 M516 92 V192 M536 104 V180" stroke="#7c5cff" stroke-opacity="0.75"/>
    <path d="M148 118 V166 M168 110 V174 M188 122 V158" stroke="#23d5ab" stroke-opacity="0.45"/>
    <path d="M396 118 V166 M416 110 V174 M436 122 V158" stroke="#7c5cff" stroke-opacity="0.45"/>
  </g>
  <path d="M248 142 L292 118 L336 142 L292 166 Z" stroke="#facc15" stroke-opacity="0.6" stroke-width="2" fill="none"/>
  <g opacity="0.35">
    <path d="M200 60 L220 80 M384 60 L364 80" stroke="#23d5ab" stroke-width="2"/>
    <path d="M200 224 L220 204 M384 224 L364 204" stroke="#7c5cff" stroke-width="2"/>
  </g>
  <rect y="248" width="584" height="36" fill="#23d5ab" opacity="0.08"/>
</svg>
